<svg width="320" height="60" viewBox="0 0 320 60" fill="none" xmlns="http://www.w3.org/2000/svg">
<path d="M4 43.5246V29.5C4 29.2374 4.20981 29.0246 4.46862 29.0246H12.6695C13.7047 29.0246 14.5439 28.1732 14.5439 27.123V15.4754C14.5439 15.2128 14.7537 15 15.0126 15H23.4597C23.6004 15 23.7336 15.0641 23.8226 15.1746L39.275 34.3605C39.3434 34.4454 39.3808 34.5517 39.3808 34.6613V43.5246C39.3808 43.7872 39.1709 44 38.9121 44H30.2319C30.0905 44 29.9567 43.9352 29.8677 43.8237L20.5571 32.1558C19.7235 31.1111 18.0586 31.7091 18.0586 33.0531V38.2951C18.0586 41.4458 15.5409 44 12.4351 44H4.46862C4.20981 44 4 43.7872 4 43.5246Z" fill="black"/>
<path d="M50.487 43.8237L38.6778 29.0246L35.1632 24.7459V15.4754C35.1632 15.2128 35.373 15 35.6318 15H44.079C44.2197 15 44.3529 15.0641 44.4419 15.1746L59.8943 34.3605C59.9627 34.4454 60 34.5517 60 34.6613V43.5246C60 43.7872 59.7902 44 59.5314 44H50.8512C50.7098 44 50.5759 43.9352 50.487 43.8237Z" fill="black"/>
<path d="M314.626 35.66C314.626 38.712 311.798 40.448 307.878 40.448C303.706 40.448 301.13 38.432 301.13 35.352H305.47C305.47 36.36 306.366 37.004 307.85 37.004C309.11 37.004 310.006 36.528 310.006 35.912C310.006 33.98 301.298 35.716 301.298 30.256C301.298 27.288 303.93 25.552 307.71 25.552C311.602 25.552 314.598 27.4 314.122 30.9H309.754C310.006 29.752 309.194 29.024 307.738 29.024C306.478 29.024 305.918 29.556 305.918 30.088C305.918 32.188 314.626 30.312 314.626 35.66Z" fill="black"/>
<path d="M290.639 40H286.159V26H290.639V28.38C291.339 26.644 292.935 25.552 295.035 25.552C299.599 25.552 299.599 30.144 299.599 31.852V40H295.119V31.852C295.119 30.844 295.119 29.164 293.243 29.164C291.731 29.164 290.639 30.732 290.639 33.056V40Z" fill="black"/>
<path d="M284.095 41.092C284.095 44.144 280.847 46.048 277.179 46.048C273.483 46.048 270.655 44.116 270.095 40.896H274.715C274.939 41.792 275.779 42.268 277.095 42.268C278.383 42.268 279.475 41.792 279.475 40.84C279.475 39.944 278.495 39.244 276.787 39.244C275.807 39.244 273.847 39.468 272.615 39.776V37.172C275.247 36.948 277.123 36.248 278.411 35.24C277.655 35.492 276.843 35.604 275.947 35.604C272.503 35.604 270.151 33.728 270.151 30.788C270.151 27.68 272.811 25.552 276.815 25.552C278.915 25.552 280.623 26.14 281.743 27.092C281.939 26.224 281.827 25.244 281.603 24.264H284.683C284.991 25.972 284.375 27.904 283.199 29.164C283.367 29.64 283.479 30.256 283.479 30.844C283.479 33.112 282.079 35.38 279.531 36.836C282.331 37.256 284.095 38.824 284.095 41.092ZM274.771 30.872C274.771 31.796 275.583 32.412 276.815 32.412C278.047 32.412 278.859 31.796 278.859 30.872C278.859 29.948 278.047 29.332 276.815 29.332C275.583 29.332 274.771 29.948 274.771 30.872Z" fill="black"/>
<path d="M268.275 40H263.795V26H268.275V40ZM268.583 21.912C268.583 23.34 267.491 24.432 266.063 24.432C264.635 24.432 263.543 23.34 263.543 21.912C263.543 20.484 264.635 19.392 266.063 19.392C267.491 19.392 268.583 20.484 268.583 21.912Z" fill="black"/>
<path d="M261.962 35.66C261.962 38.712 259.134 40.448 255.214 40.448C251.042 40.448 248.466 38.432 248.466 35.352H252.806C252.806 36.36 253.702 37.004 255.186 37.004C256.446 37.004 257.342 36.528 257.342 35.912C257.342 33.98 248.634 35.716 248.634 30.256C248.634 27.288 251.266 25.552 255.046 25.552C258.938 25.552 261.934 27.4 261.458 30.9H257.09C257.342 29.752 256.53 29.024 255.074 29.024C253.814 29.024 253.254 29.556 253.254 30.088C253.254 32.188 261.962 30.312 261.962 35.66Z" fill="black"/>
<path d="M247.342 35.352C246.502 38.432 243.785 40.448 239.949 40.448C235.329 40.448 232.333 37.48 232.333 33C232.333 28.52 235.385 25.552 239.921 25.552C245.157 25.552 248.321 29.5 246.697 33.98H237.038C237.318 35.688 238.297 36.668 240.061 36.668C241.237 36.668 242.077 36.22 242.497 35.352H247.342ZM239.921 29.192C238.437 29.192 237.458 29.92 237.094 31.46H242.301C242.441 30.088 241.601 29.192 239.921 29.192Z" fill="black"/>
<path d="M220.876 40H212.952V20.4H220.876C226.952 20.4 230.928 24.264 230.928 30.172C230.928 36.136 226.952 40 220.876 40ZM217.712 24.6V35.8H220.876C224.152 35.8 226.028 33.728 226.028 30.116C226.028 26.532 224.236 24.6 220.876 24.6H217.712Z" fill="black"/>
<path d="M196.139 40H191.659V26H196.139V28.296C196.811 26.56 198.239 25.552 200.143 25.552C202.607 25.552 204.259 27.344 204.259 30.228C204.259 31.488 203.951 32.776 203.419 33.868H198.799C199.359 32.832 199.695 31.936 199.695 31.096C199.695 30.032 199.163 29.332 198.295 29.332C197.063 29.332 196.139 30.788 196.139 33.056V40Z" fill="black"/>
<path d="M189.974 35.352C189.134 38.432 186.418 40.448 182.582 40.448C177.962 40.448 174.966 37.48 174.966 33C174.966 28.52 178.018 25.552 182.554 25.552C187.79 25.552 190.954 29.5 189.33 33.98H179.67C179.95 35.688 180.93 36.668 182.694 36.668C183.87 36.668 184.71 36.22 185.13 35.352H189.974ZM182.554 29.192C181.07 29.192 180.09 29.92 179.726 31.46H184.934C185.074 30.088 184.234 29.192 182.554 29.192Z" fill="black"/>
<path d="M168.796 38.348C167.76 39.664 166.22 40.448 164.316 40.448C160.564 40.448 157.876 37.48 157.876 33C157.876 28.52 160.536 25.552 164.288 25.552C166.192 25.552 167.732 26.308 168.796 27.68V20.4H173.276V40H168.796V38.348ZM162.496 33C162.496 35.212 163.812 36.668 165.772 36.668C167.732 36.668 169.048 35.212 169.048 33C169.048 30.788 167.732 29.332 165.772 29.332C163.812 29.332 162.496 30.788 162.496 33Z" fill="black"/>
<path d="M147.385 40H142.905V26H147.385V28.38C148.085 26.644 149.681 25.552 151.781 25.552C156.345 25.552 156.345 30.144 156.345 31.852V40H151.865V31.852C151.865 30.844 151.865 29.164 149.989 29.164C148.477 29.164 147.385 30.732 147.385 33.056V40Z" fill="black"/>
<path d="M141.22 35.352C140.38 38.432 137.664 40.448 133.828 40.448C129.208 40.448 126.212 37.48 126.212 33C126.212 28.52 129.264 25.552 133.8 25.552C139.036 25.552 142.2 29.5 140.576 33.98H130.916C131.196 35.688 132.176 36.668 133.94 36.668C135.116 36.668 135.956 36.22 136.376 35.352H141.22ZM133.8 29.192C132.316 29.192 131.336 29.92 130.972 31.46H136.18C136.32 30.088 135.48 29.192 133.8 29.192Z" fill="black"/>
<path d="M115.721 40H111.241V20.4H115.721V28.324C116.393 26.616 117.933 25.552 120.061 25.552C123.085 25.552 124.681 27.708 124.681 31.572V40H120.201V31.572C120.201 30.116 119.501 29.164 118.325 29.164C116.813 29.164 115.721 30.732 115.721 33.056V40Z" fill="black"/>
<path d="M109.146 40H105.03V37.928C103.994 39.58 102.342 40.448 100.214 40.448C97.2745 40.448 95.3145 38.768 95.3145 36.22C95.3145 33.308 97.7785 31.516 101.782 31.516C102.762 31.516 103.742 31.6 104.666 31.768C104.666 30.116 103.938 29.276 102.398 29.276C101.334 29.276 100.606 29.808 100.578 30.844H95.9865C96.0145 27.568 98.6185 25.552 102.342 25.552C106.682 25.552 109.146 27.82 109.146 31.824V40ZM102.23 34.596C100.662 34.596 99.7105 35.128 99.7105 36.024C99.7105 36.752 100.298 37.172 101.25 37.172C102.818 37.172 103.966 36.36 104.582 34.848C103.77 34.68 103.014 34.596 102.23 34.596Z" fill="black"/>
<path d="M73.72 40H68.96V20.4H77.08L80.944 34.54L84.78 20.4H92.76V40H88V24.152L83.24 40H78.48L73.72 24.152V40Z" fill="black"/>
</svg>
