<svg xmlns="http://www.w3.org/2000/svg" width="721" height="401" viewBox="0 0 721 401" fill="none"><g clip-path="url(#clip0_180_640)"><g clip-path="url(#clip1_180_640)"><path d="M91.683 225.887C84.8408 231.908 75.9924 235.176 66.8624 235.054C45.8225 235.054 30.3713 219.667 30.3713 198.552C30.3713 177.436 45.3293 162.704 66.8624 162.704C76.0128 162.581 84.8949 165.781 91.8473 171.707L96.4498 175.635L116.832 155.338L111.737 150.591C99.4081 139.623 83.393 133.664 66.8624 133.895C29.0563 133.895 1.60571 161.067 1.60571 198.388C1.60571 235.708 29.7138 263.699 66.8624 263.699C83.5498 263.921 99.702 257.839 112.065 246.675L116.997 242.092L96.2855 221.795L91.683 225.887Z" fill="#17313B"></path><path d="M65.876 220.49C77.9499 220.49 87.7378 210.743 87.7378 198.72C87.7378 186.696 77.9499 176.949 65.876 176.949C53.802 176.949 44.0142 186.696 44.0142 198.72C44.0142 210.743 53.802 220.49 65.876 220.49Z" fill="#FF3D2E"></path></g><path d="M210.413 152.885C210.067 152.195 209.72 151.85 209.027 151.85L193.081 149.088L186.149 134.935C185.802 134.245 185.109 133.9 184.415 133.9C184.069 133.9 183.375 134.245 183.029 134.935L175.749 149.088L159.804 151.159C159.111 151.504 158.764 151.85 158.417 152.54C158.071 153.23 158.417 153.921 158.764 154.266L170.203 165.657L167.43 181.536C167.43 182.226 167.43 182.917 168.123 183.262C168.817 183.607 169.51 183.607 169.857 183.262L184.069 176.013L198.281 183.607C198.628 183.607 198.974 183.952 198.974 183.952C199.321 183.952 199.668 183.952 200.014 183.607C200.707 183.262 200.707 182.571 200.707 181.881L198.281 166.002L209.72 154.611C210.413 154.266 210.413 153.576 210.413 152.885Z" fill="#FF3D2E"></path><path d="M284.278 152.885C283.931 152.195 283.585 151.85 282.891 151.85L266.946 149.088L260.013 134.935C259.666 134.245 258.973 133.9 258.28 133.9C257.933 133.9 257.24 134.245 256.893 134.935L249.614 149.088L233.668 151.159C232.975 151.504 232.628 151.85 232.282 152.54C231.935 153.23 232.282 153.921 232.628 154.266L244.068 165.657L241.294 181.536C241.294 182.226 241.294 182.917 241.988 183.262C242.681 183.607 243.374 183.607 243.721 183.262L257.933 176.013L272.145 183.607C272.492 183.607 272.839 183.952 272.839 183.952C273.185 183.952 273.532 183.952 273.879 183.607C274.572 183.262 274.572 182.571 274.572 181.881L272.145 166.002L283.585 154.611C284.278 154.266 284.278 153.576 284.278 152.885Z" fill="#FF3D2E"></path><path d="M358.142 152.885C357.796 152.195 357.449 151.85 356.756 151.85L340.81 149.088L333.877 134.935C333.531 134.245 332.837 133.9 332.144 133.9C331.798 133.9 331.104 134.245 330.758 134.935L323.478 149.088L307.533 151.159C306.839 151.504 306.493 151.85 306.146 152.54C305.8 153.23 306.146 153.921 306.493 154.266L317.932 165.657L315.159 181.536C315.159 182.226 315.159 182.917 315.852 183.262C316.545 183.607 317.239 183.607 317.585 183.262L331.798 176.013L346.01 183.607C346.356 183.607 346.703 183.952 346.703 183.952C347.05 183.952 347.396 183.952 347.743 183.607C348.436 183.262 348.436 182.571 348.436 181.881L346.01 166.002L357.449 154.611C358.142 154.266 358.142 153.576 358.142 152.885Z" fill="#FF3D2E"></path><path d="M432.007 152.885C431.66 152.195 431.313 151.85 430.62 151.85L414.675 149.088L407.742 134.935C407.395 134.245 406.702 133.9 406.009 133.9C405.662 133.9 404.969 134.245 404.622 134.935L397.343 149.088L381.397 151.159C380.704 151.504 380.357 151.85 380.011 152.54C379.664 153.23 380.011 153.921 380.357 154.266L391.796 165.657L389.023 181.536C389.023 182.226 389.023 182.917 389.717 183.262C390.41 183.607 391.103 183.607 391.45 183.262L405.662 176.013L419.874 183.607C420.221 183.607 420.568 183.952 420.568 183.952C420.914 183.952 421.261 183.952 421.607 183.607C422.301 183.262 422.301 182.571 422.301 181.881L419.874 166.002L431.313 154.611C432.007 154.266 432.007 153.576 432.007 152.885Z" fill="#FF3D2E"></path><path d="M505.871 152.885C505.524 152.195 505.178 151.85 504.484 151.85L488.539 149.088L481.606 134.935C481.26 134.245 480.566 133.9 479.873 133.9C479.526 133.9 478.833 134.245 478.486 134.935L471.207 149.088L455.262 151.159C454.568 151.504 454.222 151.85 453.875 152.54C453.528 153.23 453.875 153.921 454.222 154.266L465.661 165.657L462.888 181.536C462.888 182.226 462.888 182.917 463.581 183.262C464.274 183.607 464.967 183.607 465.314 183.262L479.526 176.013L493.739 183.607C494.085 183.607 494.432 183.952 494.432 183.952C494.779 183.952 495.125 183.952 495.472 183.607C496.165 183.262 496.165 182.571 496.165 181.881L493.739 166.002L505.178 154.611C505.871 154.266 505.871 153.576 505.871 152.885Z" fill="#FF3D2E"></path><path d="M425.028 246.135C425.931 247.49 427.078 248.498 428.469 249.159C429.894 249.784 431.353 250.097 432.848 250.097C433.682 250.097 434.534 249.975 435.403 249.732C436.272 249.454 437.054 249.054 437.749 248.533C438.479 248.012 439.07 247.368 439.521 246.604C439.973 245.839 440.199 244.953 440.199 243.945C440.199 242.52 439.747 241.442 438.844 240.712C437.94 239.948 436.81 239.322 435.455 238.836C434.134 238.314 432.674 237.828 431.075 237.376C429.511 236.889 428.051 236.229 426.696 235.395C425.375 234.56 424.263 233.448 423.359 232.058C422.456 230.633 422.004 228.721 422.004 226.323C422.004 225.245 422.23 224.098 422.681 222.882C423.168 221.665 423.915 220.553 424.923 219.545C425.931 218.537 427.217 217.703 428.781 217.043C430.38 216.348 432.292 216 434.516 216C436.532 216 438.461 216.278 440.303 216.834C442.146 217.39 443.762 218.52 445.152 220.223L441.085 223.925C440.46 222.951 439.574 222.169 438.427 221.579C437.28 220.988 435.976 220.692 434.516 220.692C433.126 220.692 431.962 220.883 431.023 221.266C430.12 221.613 429.39 222.083 428.833 222.673C428.277 223.23 427.878 223.838 427.634 224.498C427.426 225.159 427.322 225.767 427.322 226.323C427.322 227.887 427.773 229.086 428.677 229.92C429.581 230.754 430.693 231.432 432.014 231.954C433.369 232.475 434.829 232.944 436.393 233.361C437.992 233.778 439.452 234.369 440.773 235.134C442.128 235.864 443.258 236.872 444.161 238.158C445.065 239.409 445.517 241.147 445.517 243.371C445.517 245.144 445.169 246.743 444.474 248.168C443.814 249.593 442.91 250.792 441.763 251.765C440.616 252.739 439.261 253.486 437.697 254.007C436.133 254.529 434.464 254.789 432.692 254.789C430.328 254.789 428.086 254.372 425.966 253.538C423.846 252.704 422.16 251.418 420.909 249.68L425.028 246.135Z" fill="#4D4D4D"></path><path d="M369.09 216.938H374.304L382.437 246.447H382.541L391.248 216.938H396.983L405.69 246.447H405.794L413.927 216.938H419.141L408.401 253.851H403.135L394.168 223.716H394.063L385.148 253.851H379.882L369.09 216.938Z" fill="#4D4D4D"></path><path d="M341.91 216.938H365.736V221.631H346.915V232.631H364.433V237.324H346.915V249.158H366.675V253.851H341.91V216.938Z" fill="#4D4D4D"></path><path d="M327.4 216.938H332.405V253.851H327.4V216.938Z" fill="#4D4D4D"></path><path d="M289.503 216.938H295.29L306.134 246.969H306.239L317.5 216.938H322.974L308.428 253.851H303.736L289.503 216.938Z" fill="#4D4D4D"></path><path d="M262.688 216.938H286.514V221.631H267.693V232.631H285.211V237.324H267.693V249.158H287.452V253.851H262.688V216.938Z" fill="#4D4D4D"></path><path d="M230.816 216.938H243.797C246.161 216.938 248.107 217.269 249.637 217.929C251.166 218.555 252.365 219.371 253.234 220.379C254.138 221.353 254.763 222.465 255.111 223.716C255.459 224.933 255.632 226.114 255.632 227.261C255.632 228.443 255.424 229.59 255.007 230.702C254.59 231.78 253.981 232.77 253.182 233.674C252.417 234.543 251.461 235.29 250.314 235.916C249.202 236.507 247.951 236.872 246.561 237.011L257.04 253.851H250.784L241.399 237.584H235.821V253.851H230.816V216.938ZM235.821 233.205H242.39C243.363 233.205 244.319 233.135 245.257 232.996C246.23 232.823 247.082 232.527 247.812 232.11C248.577 231.693 249.185 231.102 249.637 230.337C250.089 229.538 250.314 228.513 250.314 227.261C250.314 226.01 250.089 225.002 249.637 224.237C249.185 223.438 248.577 222.83 247.812 222.413C247.082 221.996 246.23 221.718 245.257 221.579C244.319 221.405 243.363 221.318 242.39 221.318H235.821V233.205Z" fill="#4D4D4D"></path><path d="M197.084 254.476C195.416 254.476 193.835 254.233 192.34 253.746C190.88 253.225 189.612 252.478 188.534 251.505C187.457 250.531 186.605 249.35 185.98 247.959C185.354 246.569 185.041 245.005 185.041 243.267C185.041 242.12 185.215 241.06 185.562 240.087C185.945 239.114 186.449 238.245 187.074 237.48C187.7 236.681 188.43 236.02 189.264 235.499C190.133 234.943 191.071 234.526 192.079 234.248V234.091C191.384 233.917 190.689 233.605 189.994 233.153C189.299 232.701 188.673 232.127 188.117 231.432C187.596 230.737 187.161 229.903 186.814 228.93C186.466 227.922 186.292 226.775 186.292 225.489C186.292 224.098 186.57 222.847 187.127 221.735C187.717 220.588 188.499 219.615 189.473 218.815C190.481 218.016 191.628 217.408 192.914 216.991C194.234 216.539 195.625 216.313 197.084 216.313C198.544 216.313 199.917 216.539 201.203 216.991C202.524 217.408 203.671 218.016 204.644 218.815C205.652 219.615 206.434 220.588 206.99 221.735C207.581 222.847 207.877 224.098 207.877 225.489C207.877 226.775 207.703 227.922 207.355 228.93C207.008 229.903 206.556 230.737 206 231.432C205.478 232.127 204.87 232.701 204.175 233.153C203.48 233.605 202.785 233.917 202.09 234.091V234.248C203.098 234.526 204.019 234.943 204.853 235.499C205.722 236.02 206.469 236.681 207.095 237.48C207.72 238.245 208.207 239.114 208.554 240.087C208.937 241.06 209.128 242.12 209.128 243.267C209.128 245.005 208.815 246.569 208.189 247.959C207.564 249.35 206.712 250.531 205.635 251.505C204.557 252.478 203.271 253.225 201.777 253.746C200.317 254.233 198.753 254.476 197.084 254.476ZM191.297 226.219C191.297 226.949 191.419 227.661 191.662 228.356C191.94 229.051 192.323 229.677 192.809 230.233C193.296 230.755 193.887 231.189 194.582 231.537C195.312 231.884 196.146 232.058 197.084 232.058C198.058 232.058 198.892 231.902 199.587 231.589C200.317 231.241 200.925 230.807 201.412 230.285C201.898 229.729 202.263 229.104 202.507 228.408C202.75 227.713 202.872 226.983 202.872 226.219C202.872 224.516 202.333 223.125 201.255 222.048C200.213 220.936 198.822 220.379 197.084 220.379C195.486 220.379 194.113 220.918 192.966 221.996C191.854 223.073 191.297 224.481 191.297 226.219ZM197.084 250.097C199.17 250.097 200.856 249.471 202.142 248.22C203.462 246.934 204.123 245.283 204.123 243.267C204.123 242.155 203.932 241.182 203.549 240.348C203.202 239.479 202.698 238.766 202.037 238.21C201.412 237.619 200.665 237.185 199.796 236.907C198.961 236.594 198.058 236.437 197.084 236.437C195.034 236.472 193.348 237.132 192.027 238.419C190.707 239.67 190.046 241.286 190.046 243.267C190.046 244.345 190.237 245.318 190.62 246.187C191.002 247.021 191.506 247.733 192.132 248.324C192.792 248.88 193.539 249.315 194.373 249.628C195.242 249.941 196.146 250.097 197.084 250.097Z" fill="#4D4D4D"></path><path d="M167.697 222.673L160.92 228.93L158 225.437L168.271 216.938H172.702V253.851H167.697V222.673Z" fill="#4D4D4D"></path></g><defs><clipPath id="clip0_180_640"><rect width="720" height="400.011" fill="white" transform="translate(0.278809 0.0216064)"></rect></clipPath><clipPath id="clip1_180_640"><rect width="115.391" height="129.804" fill="white" transform="translate(1.60571 133.9)"></rect></clipPath></defs></svg>